<mxfile host="65bd71144e">
    <diagram id="AouEF7EEiCzvJQMSAC_2" name="rel">
        <mxGraphModel dx="1998" dy="885" grid="1" gridSize="10" guides="1" tooltips="1" connect="1" arrows="1" fold="1" page="1" pageScale="1" pageWidth="850" pageHeight="1100" math="0" shadow="0">
            <root>
                <mxCell id="0"/>
                <mxCell id="1" parent="0"/>
                <mxCell id="qE0WKJXJSlHzk5M3Jkas-3" value="Trip" style="rounded=1;whiteSpace=wrap;html=1;fillColor=#647687;strokeColor=#314354;fontColor=#ffffff;" vertex="1" parent="1">
                    <mxGeometry x="-184.5" y="195" width="80" height="40" as="geometry"/>
                </mxCell>
                <mxCell id="qE0WKJXJSlHzk5M3Jkas-189" style="edgeStyle=orthogonalEdgeStyle;html=1;exitX=1;exitY=0.5;exitDx=0;exitDy=0;entryX=0;entryY=0.5;entryDx=0;entryDy=0;startArrow=none;startFill=0;endArrow=none;endFill=0;" edge="1" parent="1" source="qE0WKJXJSlHzk5M3Jkas-4" target="qE0WKJXJSlHzk5M3Jkas-154">
                    <mxGeometry relative="1" as="geometry"/>
                </mxCell>
                <mxCell id="qE0WKJXJSlHzk5M3Jkas-4" value="City" style="rounded=1;whiteSpace=wrap;html=1;fillColor=#647687;fontColor=#ffffff;strokeColor=#314354;" vertex="1" parent="1">
                    <mxGeometry x="290.5" y="47.5" width="80" height="40" as="geometry"/>
                </mxCell>
                <mxCell id="qE0WKJXJSlHzk5M3Jkas-175" style="edgeStyle=orthogonalEdgeStyle;html=1;exitX=1;exitY=0.5;exitDx=0;exitDy=0;entryX=0;entryY=0.5;entryDx=0;entryDy=0;startArrow=none;startFill=0;endArrow=none;endFill=0;" edge="1" parent="1" source="qE0WKJXJSlHzk5M3Jkas-5" target="qE0WKJXJSlHzk5M3Jkas-117">
                    <mxGeometry relative="1" as="geometry"/>
                </mxCell>
                <mxCell id="qE0WKJXJSlHzk5M3Jkas-184" style="edgeStyle=orthogonalEdgeStyle;html=1;exitX=0;exitY=0.5;exitDx=0;exitDy=0;entryX=0.5;entryY=0;entryDx=0;entryDy=0;startArrow=none;startFill=0;endArrow=none;endFill=0;" edge="1" parent="1" source="qE0WKJXJSlHzk5M3Jkas-5" target="qE0WKJXJSlHzk5M3Jkas-119">
                    <mxGeometry relative="1" as="geometry"/>
                </mxCell>
                <mxCell id="qE0WKJXJSlHzk5M3Jkas-5" value="Post" style="rounded=1;whiteSpace=wrap;html=1;fillColor=#647687;fontColor=#ffffff;strokeColor=#314354;" vertex="1" parent="1">
                    <mxGeometry x="-452" y="47.5" width="80" height="40" as="geometry"/>
                </mxCell>
                <mxCell id="qE0WKJXJSlHzk5M3Jkas-6" value="Accommodation" style="rounded=1;whiteSpace=wrap;html=1;fillColor=#647687;fontColor=#ffffff;strokeColor=#314354;" vertex="1" parent="1">
                    <mxGeometry x="360.5" y="287.5" width="120" height="40" as="geometry"/>
                </mxCell>
                <mxCell id="qE0WKJXJSlHzk5M3Jkas-7" value="Continent" style="rounded=1;whiteSpace=wrap;html=1;fillColor=#647687;fontColor=#ffffff;strokeColor=#314354;" vertex="1" parent="1">
                    <mxGeometry x="765.5" y="47.5" width="80" height="40" as="geometry"/>
                </mxCell>
                <mxCell id="qE0WKJXJSlHzk5M3Jkas-191" value="" style="edgeStyle=orthogonalEdgeStyle;html=1;startArrow=none;startFill=0;endArrow=none;endFill=0;" edge="1" parent="1" source="qE0WKJXJSlHzk5M3Jkas-9" target="qE0WKJXJSlHzk5M3Jkas-155">
                    <mxGeometry relative="1" as="geometry"/>
                </mxCell>
                <mxCell id="qE0WKJXJSlHzk5M3Jkas-9" value="Country" style="rounded=1;whiteSpace=wrap;html=1;fillColor=#647687;fontColor=#ffffff;strokeColor=#314354;" vertex="1" parent="1">
                    <mxGeometry x="525.5" y="47.5" width="80" height="40" as="geometry"/>
                </mxCell>
                <mxCell id="qE0WKJXJSlHzk5M3Jkas-11" value="Recommendation" style="rounded=1;whiteSpace=wrap;html=1;fillColor=#647687;fontColor=#ffffff;strokeColor=#314354;" vertex="1" parent="1">
                    <mxGeometry x="125.5" y="417.25" width="120" height="40" as="geometry"/>
                </mxCell>
                <mxCell id="qE0WKJXJSlHzk5M3Jkas-12" value="Activity" style="rounded=1;whiteSpace=wrap;html=1;fillColor=#647687;fontColor=#ffffff;strokeColor=#314354;" vertex="1" parent="1">
                    <mxGeometry x="365.5" y="722.5" width="120" height="40" as="geometry"/>
                </mxCell>
                <mxCell id="qE0WKJXJSlHzk5M3Jkas-13" value="Restaurant" style="rounded=1;whiteSpace=wrap;html=1;fillColor=#647687;fontColor=#ffffff;strokeColor=#314354;" vertex="1" parent="1">
                    <mxGeometry x="365.5" y="498" width="120" height="40" as="geometry"/>
                </mxCell>
                <mxCell id="qE0WKJXJSlHzk5M3Jkas-15" value="ItineraryItem" style="rounded=1;whiteSpace=wrap;html=1;fillColor=#647687;fontColor=#ffffff;strokeColor=#314354;" vertex="1" parent="1">
                    <mxGeometry x="-24.5" y="422.5" width="110" height="40" as="geometry"/>
                </mxCell>
                <mxCell id="qE0WKJXJSlHzk5M3Jkas-17" value="User" style="rounded=1;whiteSpace=wrap;html=1;fillColor=#647687;fontColor=#ffffff;strokeColor=#314354;" vertex="1" parent="1">
                    <mxGeometry x="-327" y="492.5" width="80" height="40" as="geometry"/>
                </mxCell>
                <mxCell id="qE0WKJXJSlHzk5M3Jkas-170" style="edgeStyle=orthogonalEdgeStyle;html=1;exitX=0.5;exitY=0;exitDx=0;exitDy=0;entryX=0;entryY=0.5;entryDx=0;entryDy=0;startArrow=none;startFill=0;endArrow=none;endFill=0;" edge="1" parent="1" source="qE0WKJXJSlHzk5M3Jkas-18" target="qE0WKJXJSlHzk5M3Jkas-3">
                    <mxGeometry relative="1" as="geometry"/>
                </mxCell>
                <mxCell id="qE0WKJXJSlHzk5M3Jkas-171" style="edgeStyle=orthogonalEdgeStyle;html=1;exitX=0.5;exitY=1;exitDx=0;exitDy=0;entryX=0.5;entryY=0;entryDx=0;entryDy=0;startArrow=none;startFill=0;endArrow=none;endFill=0;" edge="1" parent="1" source="qE0WKJXJSlHzk5M3Jkas-18" target="qE0WKJXJSlHzk5M3Jkas-17">
                    <mxGeometry relative="1" as="geometry"/>
                </mxCell>
                <mxCell id="qE0WKJXJSlHzk5M3Jkas-18" value="makes" style="rhombus;whiteSpace=wrap;html=1;" vertex="1" parent="1">
                    <mxGeometry x="-327" y="310" width="80" height="50" as="geometry"/>
                </mxCell>
                <mxCell id="qE0WKJXJSlHzk5M3Jkas-156" style="edgeStyle=orthogonalEdgeStyle;html=1;exitX=0;exitY=0.5;exitDx=0;exitDy=0;entryX=1;entryY=0.5;entryDx=0;entryDy=0;startArrow=none;startFill=0;endArrow=none;endFill=0;" edge="1" parent="1" source="qE0WKJXJSlHzk5M3Jkas-42" target="qE0WKJXJSlHzk5M3Jkas-138">
                    <mxGeometry relative="1" as="geometry">
                        <mxPoint x="-407" y="554" as="targetPoint"/>
                    </mxGeometry>
                </mxCell>
                <mxCell id="qE0WKJXJSlHzk5M3Jkas-42" value="id" style="ellipse;whiteSpace=wrap;html=1;" vertex="1" parent="1">
                    <mxGeometry x="-329.5" y="566.5" width="90" height="30" as="geometry"/>
                </mxCell>
                <mxCell id="qE0WKJXJSlHzk5M3Jkas-43" value="trip" style="ellipse;whiteSpace=wrap;html=1;" vertex="1" parent="1">
                    <mxGeometry x="-14.5" y="186.25" width="90" height="30" as="geometry"/>
                </mxCell>
                <mxCell id="qE0WKJXJSlHzk5M3Jkas-168" style="edgeStyle=orthogonalEdgeStyle;html=1;exitX=0;exitY=0.5;exitDx=0;exitDy=0;entryX=1;entryY=0.5;entryDx=0;entryDy=0;startArrow=none;startFill=0;endArrow=none;endFill=0;" edge="1" parent="1" source="qE0WKJXJSlHzk5M3Jkas-47" target="qE0WKJXJSlHzk5M3Jkas-134">
                    <mxGeometry relative="1" as="geometry"/>
                </mxCell>
                <mxCell id="qE0WKJXJSlHzk5M3Jkas-47" value="id" style="ellipse;whiteSpace=wrap;html=1;" vertex="1" parent="1">
                    <mxGeometry x="285.5" y="106.25" width="90" height="30" as="geometry"/>
                </mxCell>
                <mxCell id="qE0WKJXJSlHzk5M3Jkas-48" value="trip_id" style="ellipse;whiteSpace=wrap;html=1;" vertex="1" parent="1">
                    <mxGeometry x="-14.5" y="520" width="90" height="30" as="geometry"/>
                </mxCell>
                <mxCell id="qE0WKJXJSlHzk5M3Jkas-167" style="edgeStyle=orthogonalEdgeStyle;html=1;exitX=0;exitY=0.5;exitDx=0;exitDy=0;entryX=1;entryY=0.5;entryDx=0;entryDy=0;startArrow=none;startFill=0;endArrow=none;endFill=0;" edge="1" parent="1" source="qE0WKJXJSlHzk5M3Jkas-50" target="qE0WKJXJSlHzk5M3Jkas-74">
                    <mxGeometry relative="1" as="geometry"/>
                </mxCell>
                <mxCell id="qE0WKJXJSlHzk5M3Jkas-50" value="id" style="ellipse;whiteSpace=wrap;html=1;" vertex="1" parent="1">
                    <mxGeometry x="125.5" y="474.25" width="90" height="25.5" as="geometry"/>
                </mxCell>
                <mxCell id="qE0WKJXJSlHzk5M3Jkas-54" value="username" style="ellipse;whiteSpace=wrap;html=1;" vertex="1" parent="1">
                    <mxGeometry x="-329.5" y="616.5" width="90" height="30" as="geometry"/>
                </mxCell>
                <mxCell id="qE0WKJXJSlHzk5M3Jkas-55" value="email" style="ellipse;whiteSpace=wrap;html=1;" vertex="1" parent="1">
                    <mxGeometry x="-329.5" y="646.5" width="90" height="30" as="geometry"/>
                </mxCell>
                <mxCell id="qE0WKJXJSlHzk5M3Jkas-56" value="password" style="ellipse;whiteSpace=wrap;html=1;" vertex="1" parent="1">
                    <mxGeometry x="-329.5" y="686.5" width="90" height="30" as="geometry"/>
                </mxCell>
                <mxCell id="qE0WKJXJSlHzk5M3Jkas-173" style="edgeStyle=orthogonalEdgeStyle;html=1;exitX=1;exitY=0.5;exitDx=0;exitDy=0;entryX=0;entryY=0.5;entryDx=0;entryDy=0;startArrow=none;startFill=0;endArrow=none;endFill=0;" edge="1" parent="1" source="qE0WKJXJSlHzk5M3Jkas-59" target="qE0WKJXJSlHzk5M3Jkas-43">
                    <mxGeometry relative="1" as="geometry"/>
                </mxCell>
                <mxCell id="qE0WKJXJSlHzk5M3Jkas-185" style="edgeStyle=orthogonalEdgeStyle;html=1;exitX=1;exitY=0.5;exitDx=0;exitDy=0;entryX=0;entryY=0.5;entryDx=0;entryDy=0;startArrow=none;startFill=0;endArrow=none;endFill=0;" edge="1" parent="1" source="qE0WKJXJSlHzk5M3Jkas-59" target="qE0WKJXJSlHzk5M3Jkas-48">
                    <mxGeometry relative="1" as="geometry"/>
                </mxCell>
                <mxCell id="qE0WKJXJSlHzk5M3Jkas-59" value="id" style="ellipse;whiteSpace=wrap;html=1;" vertex="1" parent="1">
                    <mxGeometry x="-189.5" y="257.5" width="90" height="30" as="geometry"/>
                </mxCell>
                <mxCell id="qE0WKJXJSlHzk5M3Jkas-172" style="edgeStyle=orthogonalEdgeStyle;html=1;exitX=0.083;exitY=0.583;exitDx=0;exitDy=0;entryX=1;entryY=0.5;entryDx=0;entryDy=0;startArrow=none;startFill=0;endArrow=none;endFill=0;exitPerimeter=0;" edge="1" parent="1" source="qE0WKJXJSlHzk5M3Jkas-60" target="qE0WKJXJSlHzk5M3Jkas-42">
                    <mxGeometry relative="1" as="geometry">
                        <mxPoint x="-211.99999999999363" y="581.5" as="targetPoint"/>
                    </mxGeometry>
                </mxCell>
                <mxCell id="qE0WKJXJSlHzk5M3Jkas-60" value="user" style="ellipse;whiteSpace=wrap;html=1;" vertex="1" parent="1">
                    <mxGeometry x="-189.5" y="302.5" width="90" height="30" as="geometry"/>
                </mxCell>
                <mxCell id="qE0WKJXJSlHzk5M3Jkas-63" value="date" style="ellipse;whiteSpace=wrap;html=1;" vertex="1" parent="1">
                    <mxGeometry x="-14.5" y="612.5" width="90" height="30" as="geometry"/>
                </mxCell>
                <mxCell id="qE0WKJXJSlHzk5M3Jkas-64" value="id" style="ellipse;whiteSpace=wrap;html=1;" vertex="1" parent="1">
                    <mxGeometry x="-14.5" y="485" width="90" height="30" as="geometry"/>
                </mxCell>
                <mxCell id="qE0WKJXJSlHzk5M3Jkas-65" value="day" style="ellipse;whiteSpace=wrap;html=1;" vertex="1" parent="1">
                    <mxGeometry x="-14.5" y="567.5" width="90" height="30" as="geometry"/>
                </mxCell>
                <mxCell id="qE0WKJXJSlHzk5M3Jkas-66" value="time" style="ellipse;whiteSpace=wrap;html=1;" vertex="1" parent="1">
                    <mxGeometry x="-14.5" y="652.5" width="90" height="30" as="geometry"/>
                </mxCell>
                <mxCell id="qE0WKJXJSlHzk5M3Jkas-70" value="start_date" style="ellipse;whiteSpace=wrap;html=1;" vertex="1" parent="1">
                    <mxGeometry x="-189.5" y="357.5" width="90" height="30" as="geometry"/>
                </mxCell>
                <mxCell id="qE0WKJXJSlHzk5M3Jkas-71" value="end_date" style="ellipse;whiteSpace=wrap;html=1;" vertex="1" parent="1">
                    <mxGeometry x="-189.5" y="397.5" width="90" height="30" as="geometry"/>
                </mxCell>
                <mxCell id="qE0WKJXJSlHzk5M3Jkas-73" value="description" style="ellipse;whiteSpace=wrap;html=1;" vertex="1" parent="1">
                    <mxGeometry x="-14.5" y="692.5" width="90" height="30" as="geometry"/>
                </mxCell>
                <mxCell id="qE0WKJXJSlHzk5M3Jkas-74" value="recommendation" style="ellipse;whiteSpace=wrap;html=1;" vertex="1" parent="1">
                    <mxGeometry x="-14.5" y="739.25" width="90" height="30" as="geometry"/>
                </mxCell>
                <mxCell id="qE0WKJXJSlHzk5M3Jkas-187" style="edgeStyle=orthogonalEdgeStyle;html=1;exitX=1;exitY=0.5;exitDx=0;exitDy=0;entryX=0;entryY=0.5;entryDx=0;entryDy=0;startArrow=none;startFill=0;endArrow=none;endFill=0;" edge="1" parent="1" source="qE0WKJXJSlHzk5M3Jkas-76" target="qE0WKJXJSlHzk5M3Jkas-118">
                    <mxGeometry relative="1" as="geometry"/>
                </mxCell>
                <mxCell id="DPfDxlEoP37-d6R4IsyM-1" style="edgeStyle=orthogonalEdgeStyle;html=1;exitX=0;exitY=0.5;exitDx=0;exitDy=0;entryX=1;entryY=0.5;entryDx=0;entryDy=0;startArrow=none;startFill=0;endArrow=none;endFill=0;" edge="1" parent="1" source="qE0WKJXJSlHzk5M3Jkas-76" target="qE0WKJXJSlHzk5M3Jkas-117">
                    <mxGeometry relative="1" as="geometry"/>
                </mxCell>
                <mxCell id="qE0WKJXJSlHzk5M3Jkas-76" value="Stops" style="rounded=1;whiteSpace=wrap;html=1;fillColor=#647687;fontColor=#ffffff;strokeColor=#314354;" vertex="1" parent="1">
                    <mxGeometry x="-14.5" y="47.5" width="110" height="40" as="geometry"/>
                </mxCell>
                <mxCell id="qE0WKJXJSlHzk5M3Jkas-145" style="edgeStyle=orthogonalEdgeStyle;html=1;exitX=1;exitY=0.5;exitDx=0;exitDy=0;startArrow=none;startFill=0;endArrow=none;endFill=0;entryX=0;entryY=0.5;entryDx=0;entryDy=0;" edge="1" parent="1" source="qE0WKJXJSlHzk5M3Jkas-77" target="qE0WKJXJSlHzk5M3Jkas-47">
                    <mxGeometry relative="1" as="geometry">
                        <mxPoint x="253" y="125" as="targetPoint"/>
                    </mxGeometry>
                </mxCell>
                <mxCell id="qE0WKJXJSlHzk5M3Jkas-77" value="city" style="ellipse;whiteSpace=wrap;html=1;" vertex="1" parent="1">
                    <mxGeometry x="-14.5" y="148.75" width="90" height="30" as="geometry"/>
                </mxCell>
                <mxCell id="qE0WKJXJSlHzk5M3Jkas-163" style="edgeStyle=orthogonalEdgeStyle;html=1;exitX=1;exitY=0.5;exitDx=0;exitDy=0;startArrow=none;startFill=0;endArrow=none;endFill=0;" edge="1" parent="1" source="qE0WKJXJSlHzk5M3Jkas-81">
                    <mxGeometry relative="1" as="geometry">
                        <mxPoint x="380" y="340" as="targetPoint"/>
                        <Array as="points">
                            <mxPoint x="330" y="570"/>
                            <mxPoint x="330" y="340"/>
                        </Array>
                    </mxGeometry>
                </mxCell>
                <mxCell id="qE0WKJXJSlHzk5M3Jkas-81" value="type" style="ellipse;whiteSpace=wrap;html=1;" vertex="1" parent="1">
                    <mxGeometry x="125.5" y="554.75" width="90" height="30" as="geometry"/>
                </mxCell>
                <mxCell id="qE0WKJXJSlHzk5M3Jkas-165" style="edgeStyle=orthogonalEdgeStyle;html=1;exitX=0;exitY=0.5;exitDx=0;exitDy=0;entryX=1;entryY=0.5;entryDx=0;entryDy=0;startArrow=none;startFill=0;endArrow=none;endFill=0;" edge="1" parent="1" source="qE0WKJXJSlHzk5M3Jkas-82" target="qE0WKJXJSlHzk5M3Jkas-81">
                    <mxGeometry relative="1" as="geometry"/>
                </mxCell>
                <mxCell id="qE0WKJXJSlHzk5M3Jkas-82" value="id" style="ellipse;whiteSpace=wrap;html=1;" vertex="1" parent="1">
                    <mxGeometry x="375.5" y="553.25" width="90" height="30" as="geometry"/>
                </mxCell>
                <mxCell id="qE0WKJXJSlHzk5M3Jkas-166" style="edgeStyle=orthogonalEdgeStyle;html=1;exitX=0;exitY=0.5;exitDx=0;exitDy=0;entryX=1;entryY=0.5;entryDx=0;entryDy=0;startArrow=none;startFill=0;endArrow=none;endFill=0;" edge="1" parent="1" source="qE0WKJXJSlHzk5M3Jkas-83" target="qE0WKJXJSlHzk5M3Jkas-81">
                    <mxGeometry relative="1" as="geometry"/>
                </mxCell>
                <mxCell id="qE0WKJXJSlHzk5M3Jkas-83" value="id" style="ellipse;whiteSpace=wrap;html=1;" vertex="1" parent="1">
                    <mxGeometry x="375.5" y="782.5" width="90" height="30" as="geometry"/>
                </mxCell>
                <mxCell id="qE0WKJXJSlHzk5M3Jkas-161" style="edgeStyle=orthogonalEdgeStyle;html=1;exitX=1;exitY=0.5;exitDx=0;exitDy=0;entryX=0;entryY=0.5;entryDx=0;entryDy=0;startArrow=none;startFill=0;endArrow=none;endFill=0;" edge="1" parent="1" source="qE0WKJXJSlHzk5M3Jkas-85" target="qE0WKJXJSlHzk5M3Jkas-120">
                    <mxGeometry relative="1" as="geometry"/>
                </mxCell>
                <mxCell id="qE0WKJXJSlHzk5M3Jkas-85" value="country" style="ellipse;whiteSpace=wrap;html=1;" vertex="1" parent="1">
                    <mxGeometry x="285.5" y="148.75" width="90" height="30" as="geometry"/>
                </mxCell>
                <mxCell id="qE0WKJXJSlHzk5M3Jkas-87" value="location" style="ellipse;whiteSpace=wrap;html=1;" vertex="1" parent="1">
                    <mxGeometry x="375.5" y="822.5" width="90" height="30" as="geometry"/>
                </mxCell>
                <mxCell id="qE0WKJXJSlHzk5M3Jkas-88" value="location" style="ellipse;whiteSpace=wrap;html=1;" vertex="1" parent="1">
                    <mxGeometry x="380.5" y="593" width="90" height="30" as="geometry"/>
                </mxCell>
                <mxCell id="qE0WKJXJSlHzk5M3Jkas-89" value="name" style="ellipse;whiteSpace=wrap;html=1;" vertex="1" parent="1">
                    <mxGeometry x="375.5" y="862.5" width="90" height="30" as="geometry"/>
                </mxCell>
                <mxCell id="qE0WKJXJSlHzk5M3Jkas-90" value="link" style="ellipse;whiteSpace=wrap;html=1;" vertex="1" parent="1">
                    <mxGeometry x="375.5" y="902.5" width="90" height="30" as="geometry"/>
                </mxCell>
                <mxCell id="qE0WKJXJSlHzk5M3Jkas-91" value="name" style="ellipse;whiteSpace=wrap;html=1;" vertex="1" parent="1">
                    <mxGeometry x="380.5" y="633" width="90" height="30" as="geometry"/>
                </mxCell>
                <mxCell id="qE0WKJXJSlHzk5M3Jkas-92" value="link" style="ellipse;whiteSpace=wrap;html=1;" vertex="1" parent="1">
                    <mxGeometry x="380.5" y="673" width="90" height="30" as="geometry"/>
                </mxCell>
                <mxCell id="qE0WKJXJSlHzk5M3Jkas-93" value="name" style="ellipse;whiteSpace=wrap;html=1;" vertex="1" parent="1">
                    <mxGeometry x="285.5" y="193.75" width="90" height="30" as="geometry"/>
                </mxCell>
                <mxCell id="mfZpgEICKgbTguonLtNj-6" value="" style="edgeStyle=orthogonalEdgeStyle;html=1;startArrow=ERone;startFill=0;endArrow=ERmany;endFill=0;" edge="1" parent="1" source="qE0WKJXJSlHzk5M3Jkas-94" target="qE0WKJXJSlHzk5M3Jkas-6">
                    <mxGeometry relative="1" as="geometry"/>
                </mxCell>
                <mxCell id="qE0WKJXJSlHzk5M3Jkas-94" value="location" style="ellipse;whiteSpace=wrap;html=1;" vertex="1" parent="1">
                    <mxGeometry x="285.5" y="233.75" width="90" height="30" as="geometry"/>
                </mxCell>
                <mxCell id="qE0WKJXJSlHzk5M3Jkas-95" value="date" style="ellipse;whiteSpace=wrap;html=1;" vertex="1" parent="1">
                    <mxGeometry x="-442" y="222.5" width="90" height="30" as="geometry"/>
                </mxCell>
                <mxCell id="qE0WKJXJSlHzk5M3Jkas-96" value="id" style="ellipse;whiteSpace=wrap;html=1;" vertex="1" parent="1">
                    <mxGeometry x="-444.5" y="105" width="90" height="30" as="geometry"/>
                </mxCell>
                <mxCell id="qE0WKJXJSlHzk5M3Jkas-97" value="day" style="ellipse;whiteSpace=wrap;html=1;" vertex="1" parent="1">
                    <mxGeometry x="-442" y="182.5" width="90" height="30" as="geometry"/>
                </mxCell>
                <mxCell id="qE0WKJXJSlHzk5M3Jkas-98" value="time" style="ellipse;whiteSpace=wrap;html=1;" vertex="1" parent="1">
                    <mxGeometry x="-442" y="262.5" width="90" height="30" as="geometry"/>
                </mxCell>
                <mxCell id="qE0WKJXJSlHzk5M3Jkas-99" value="description" style="ellipse;whiteSpace=wrap;html=1;" vertex="1" parent="1">
                    <mxGeometry x="-442" y="302.5" width="90" height="30" as="geometry"/>
                </mxCell>
                <mxCell id="qE0WKJXJSlHzk5M3Jkas-100" value="image" style="ellipse;whiteSpace=wrap;html=1;" vertex="1" parent="1">
                    <mxGeometry x="-442" y="342.5" width="90" height="30" as="geometry"/>
                </mxCell>
                <mxCell id="BEFTpQjeLUACiQDmyqnZ-2" style="edgeStyle=orthogonalEdgeStyle;html=1;exitX=0;exitY=0.5;exitDx=0;exitDy=0;entryX=1;entryY=0.5;entryDx=0;entryDy=0;startArrow=none;startFill=0;endArrow=none;endFill=0;" edge="1" parent="1" source="qE0WKJXJSlHzk5M3Jkas-101" target="qE0WKJXJSlHzk5M3Jkas-103">
                    <mxGeometry relative="1" as="geometry">
                        <Array as="points">
                            <mxPoint x="-590" y="398"/>
                            <mxPoint x="-590" y="693"/>
                        </Array>
                    </mxGeometry>
                </mxCell>
                <mxCell id="qE0WKJXJSlHzk5M3Jkas-101" value="comments" style="ellipse;whiteSpace=wrap;html=1;" vertex="1" parent="1">
                    <mxGeometry x="-442" y="382.5" width="90" height="30" as="geometry"/>
                </mxCell>
                <mxCell id="qE0WKJXJSlHzk5M3Jkas-102" value="date" style="ellipse;whiteSpace=wrap;html=1;" vertex="1" parent="1">
                    <mxGeometry x="-707.5" y="843.5" width="90" height="30" as="geometry"/>
                </mxCell>
                <mxCell id="qE0WKJXJSlHzk5M3Jkas-103" value="id" style="ellipse;whiteSpace=wrap;html=1;" vertex="1" parent="1">
                    <mxGeometry x="-707.5" y="678" width="90" height="30" as="geometry"/>
                </mxCell>
                <mxCell id="qE0WKJXJSlHzk5M3Jkas-104" value="day" style="ellipse;whiteSpace=wrap;html=1;" vertex="1" parent="1">
                    <mxGeometry x="-707.5" y="803.5" width="90" height="30" as="geometry"/>
                </mxCell>
                <mxCell id="qE0WKJXJSlHzk5M3Jkas-105" value="time" style="ellipse;whiteSpace=wrap;html=1;" vertex="1" parent="1">
                    <mxGeometry x="-707.5" y="883.5" width="90" height="30" as="geometry"/>
                </mxCell>
                <mxCell id="qE0WKJXJSlHzk5M3Jkas-106" value="text" style="ellipse;whiteSpace=wrap;html=1;" vertex="1" parent="1">
                    <mxGeometry x="-707.5" y="923.5" width="90" height="30" as="geometry"/>
                </mxCell>
                <mxCell id="qE0WKJXJSlHzk5M3Jkas-108" value="Comment" style="rounded=1;whiteSpace=wrap;html=1;fillColor=#647687;fontColor=#ffffff;strokeColor=#314354;" vertex="1" parent="1">
                    <mxGeometry x="-730" y="623" width="80" height="40" as="geometry"/>
                </mxCell>
                <mxCell id="qE0WKJXJSlHzk5M3Jkas-109" value="likes" style="ellipse;whiteSpace=wrap;html=1;" vertex="1" parent="1">
                    <mxGeometry x="-442" y="422.5" width="90" height="30" as="geometry"/>
                </mxCell>
                <mxCell id="qE0WKJXJSlHzk5M3Jkas-180" style="edgeStyle=orthogonalEdgeStyle;html=1;exitX=0;exitY=0.5;exitDx=0;exitDy=0;entryX=1;entryY=0.5;entryDx=0;entryDy=0;startArrow=none;startFill=0;endArrow=none;endFill=0;" edge="1" parent="1" source="qE0WKJXJSlHzk5M3Jkas-111" target="qE0WKJXJSlHzk5M3Jkas-169">
                    <mxGeometry relative="1" as="geometry"/>
                </mxCell>
                <mxCell id="qE0WKJXJSlHzk5M3Jkas-111" value="id" style="ellipse;whiteSpace=wrap;html=1;" vertex="1" parent="1">
                    <mxGeometry x="-14.5" y="106.25" width="90" height="30" as="geometry"/>
                </mxCell>
                <mxCell id="qE0WKJXJSlHzk5M3Jkas-113" value="likes" style="ellipse;whiteSpace=wrap;html=1;" vertex="1" parent="1">
                    <mxGeometry x="-712.5" y="965.25" width="90" height="30" as="geometry"/>
                </mxCell>
                <mxCell id="qE0WKJXJSlHzk5M3Jkas-117" value="has" style="rhombus;whiteSpace=wrap;html=1;" vertex="1" parent="1">
                    <mxGeometry x="-272" y="42.5" width="100" height="50" as="geometry"/>
                </mxCell>
                <mxCell id="qE0WKJXJSlHzk5M3Jkas-188" style="edgeStyle=orthogonalEdgeStyle;html=1;exitX=1;exitY=0.5;exitDx=0;exitDy=0;entryX=0;entryY=0.5;entryDx=0;entryDy=0;startArrow=none;startFill=0;endArrow=none;endFill=0;" edge="1" parent="1" source="qE0WKJXJSlHzk5M3Jkas-118" target="qE0WKJXJSlHzk5M3Jkas-4">
                    <mxGeometry relative="1" as="geometry"/>
                </mxCell>
                <mxCell id="qE0WKJXJSlHzk5M3Jkas-118" value="has location" style="rhombus;whiteSpace=wrap;html=1;" vertex="1" parent="1">
                    <mxGeometry x="145.5" y="42.5" width="100" height="50" as="geometry"/>
                </mxCell>
                <mxCell id="qE0WKJXJSlHzk5M3Jkas-177" style="edgeStyle=orthogonalEdgeStyle;html=1;exitX=0.5;exitY=1;exitDx=0;exitDy=0;entryX=0;entryY=0.5;entryDx=0;entryDy=0;startArrow=none;startFill=0;endArrow=none;endFill=0;" edge="1" parent="1" source="qE0WKJXJSlHzk5M3Jkas-119" target="qE0WKJXJSlHzk5M3Jkas-108">
                    <mxGeometry relative="1" as="geometry"/>
                </mxCell>
                <mxCell id="qE0WKJXJSlHzk5M3Jkas-119" value="has" style="rhombus;whiteSpace=wrap;html=1;" vertex="1" parent="1">
                    <mxGeometry x="-850" y="310" width="100" height="50" as="geometry"/>
                </mxCell>
                <mxCell id="qE0WKJXJSlHzk5M3Jkas-120" value="id" style="ellipse;whiteSpace=wrap;html=1;" vertex="1" parent="1">
                    <mxGeometry x="515.5" y="102.5" width="90" height="30" as="geometry"/>
                </mxCell>
                <mxCell id="qE0WKJXJSlHzk5M3Jkas-162" style="edgeStyle=orthogonalEdgeStyle;html=1;exitX=1;exitY=0.5;exitDx=0;exitDy=0;entryX=0;entryY=0.5;entryDx=0;entryDy=0;startArrow=none;startFill=0;endArrow=none;endFill=0;" edge="1" parent="1" source="qE0WKJXJSlHzk5M3Jkas-121" target="qE0WKJXJSlHzk5M3Jkas-124">
                    <mxGeometry relative="1" as="geometry"/>
                </mxCell>
                <mxCell id="qE0WKJXJSlHzk5M3Jkas-121" value="continent" style="ellipse;whiteSpace=wrap;html=1;" vertex="1" parent="1">
                    <mxGeometry x="515.5" y="142.5" width="90" height="30" as="geometry"/>
                </mxCell>
                <mxCell id="qE0WKJXJSlHzk5M3Jkas-122" value="name" style="ellipse;whiteSpace=wrap;html=1;" vertex="1" parent="1">
                    <mxGeometry x="515.5" y="187.5" width="90" height="30" as="geometry"/>
                </mxCell>
                <mxCell id="qE0WKJXJSlHzk5M3Jkas-123" value="location" style="ellipse;whiteSpace=wrap;html=1;" vertex="1" parent="1">
                    <mxGeometry x="515.5" y="227.5" width="90" height="30" as="geometry"/>
                </mxCell>
                <mxCell id="qE0WKJXJSlHzk5M3Jkas-124" value="id" style="ellipse;whiteSpace=wrap;html=1;" vertex="1" parent="1">
                    <mxGeometry x="740" y="115" width="90" height="30" as="geometry"/>
                </mxCell>
                <mxCell id="qE0WKJXJSlHzk5M3Jkas-126" value="name" style="ellipse;whiteSpace=wrap;html=1;" vertex="1" parent="1">
                    <mxGeometry x="740" y="163.75" width="90" height="30" as="geometry"/>
                </mxCell>
                <mxCell id="qE0WKJXJSlHzk5M3Jkas-130" value="id" style="ellipse;whiteSpace=wrap;html=1;" vertex="1" parent="1">
                    <mxGeometry x="375.5" y="335" width="90" height="30" as="geometry"/>
                </mxCell>
                <mxCell id="qE0WKJXJSlHzk5M3Jkas-131" value="location" style="ellipse;whiteSpace=wrap;html=1;" vertex="1" parent="1">
                    <mxGeometry x="375.5" y="375" width="90" height="30" as="geometry"/>
                </mxCell>
                <mxCell id="qE0WKJXJSlHzk5M3Jkas-132" value="name" style="ellipse;whiteSpace=wrap;html=1;" vertex="1" parent="1">
                    <mxGeometry x="375.5" y="415" width="90" height="30" as="geometry"/>
                </mxCell>
                <mxCell id="qE0WKJXJSlHzk5M3Jkas-133" value="link" style="ellipse;whiteSpace=wrap;html=1;" vertex="1" parent="1">
                    <mxGeometry x="375.5" y="455" width="90" height="30" as="geometry"/>
                </mxCell>
                <mxCell id="qE0WKJXJSlHzk5M3Jkas-134" value="city" style="ellipse;whiteSpace=wrap;html=1;" vertex="1" parent="1">
                    <mxGeometry x="125.5" y="512.25" width="90" height="30" as="geometry"/>
                </mxCell>
                <mxCell id="qE0WKJXJSlHzk5M3Jkas-136" value="friends" style="ellipse;whiteSpace=wrap;html=1;" vertex="1" parent="1">
                    <mxGeometry x="-327" y="732.5" width="90" height="30" as="geometry"/>
                </mxCell>
                <mxCell id="qE0WKJXJSlHzk5M3Jkas-147" style="edgeStyle=orthogonalEdgeStyle;html=1;exitX=1;exitY=0.5;exitDx=0;exitDy=0;entryX=0;entryY=0.5;entryDx=0;entryDy=0;startArrow=none;startFill=0;endArrow=none;endFill=0;" edge="1" parent="1" source="qE0WKJXJSlHzk5M3Jkas-137">
                    <mxGeometry relative="1" as="geometry">
                        <mxPoint x="-464.5" y="511.5" as="targetPoint"/>
                    </mxGeometry>
                </mxCell>
                <mxCell id="qE0WKJXJSlHzk5M3Jkas-137" value="Friendship" style="rounded=1;whiteSpace=wrap;html=1;fillColor=#647687;fontColor=#ffffff;strokeColor=#314354;" vertex="1" parent="1">
                    <mxGeometry x="-577" y="492.5" width="80" height="40" as="geometry"/>
                </mxCell>
                <mxCell id="qE0WKJXJSlHzk5M3Jkas-138" value="user_id" style="ellipse;whiteSpace=wrap;html=1;" vertex="1" parent="1">
                    <mxGeometry x="-549.5" y="545.5" width="90" height="30" as="geometry"/>
                </mxCell>
                <mxCell id="qE0WKJXJSlHzk5M3Jkas-179" style="edgeStyle=orthogonalEdgeStyle;html=1;exitX=1;exitY=0.5;exitDx=0;exitDy=0;entryX=0;entryY=0.5;entryDx=0;entryDy=0;startArrow=none;startFill=0;endArrow=none;endFill=0;" edge="1" parent="1" source="qE0WKJXJSlHzk5M3Jkas-140" target="qE0WKJXJSlHzk5M3Jkas-42">
                    <mxGeometry relative="1" as="geometry"/>
                </mxCell>
                <mxCell id="qE0WKJXJSlHzk5M3Jkas-140" value="friend_id" style="ellipse;whiteSpace=wrap;html=1;" vertex="1" parent="1">
                    <mxGeometry x="-549.5" y="585.5" width="90" height="30" as="geometry"/>
                </mxCell>
                <mxCell id="qE0WKJXJSlHzk5M3Jkas-142" value="friendship_date" style="ellipse;whiteSpace=wrap;html=1;" vertex="1" parent="1">
                    <mxGeometry x="-549.5" y="630.5" width="90" height="30" as="geometry"/>
                </mxCell>
                <mxCell id="qE0WKJXJSlHzk5M3Jkas-197" style="edgeStyle=orthogonalEdgeStyle;html=1;exitX=1;exitY=0.5;exitDx=0;exitDy=0;entryX=0;entryY=0.5;entryDx=0;entryDy=0;startArrow=none;startFill=0;endArrow=none;endFill=0;" edge="1" parent="1" source="qE0WKJXJSlHzk5M3Jkas-143" target="qE0WKJXJSlHzk5M3Jkas-17">
                    <mxGeometry relative="1" as="geometry"/>
                </mxCell>
                <mxCell id="qE0WKJXJSlHzk5M3Jkas-143" value="has" style="rhombus;whiteSpace=wrap;html=1;" vertex="1" parent="1">
                    <mxGeometry x="-469.5" y="487.5" width="80" height="50" as="geometry"/>
                </mxCell>
                <mxCell id="BEFTpQjeLUACiQDmyqnZ-1" style="edgeStyle=orthogonalEdgeStyle;html=1;exitX=1;exitY=0.5;exitDx=0;exitDy=0;entryX=0;entryY=0.5;entryDx=0;entryDy=0;startArrow=none;startFill=0;endArrow=none;endFill=0;" edge="1" parent="1" source="qE0WKJXJSlHzk5M3Jkas-144" target="qE0WKJXJSlHzk5M3Jkas-42">
                    <mxGeometry relative="1" as="geometry">
                        <Array as="points">
                            <mxPoint x="-380" y="773"/>
                            <mxPoint x="-380" y="582"/>
                        </Array>
                    </mxGeometry>
                </mxCell>
                <mxCell id="qE0WKJXJSlHzk5M3Jkas-144" value="user_id" style="ellipse;whiteSpace=wrap;html=1;" vertex="1" parent="1">
                    <mxGeometry x="-707.5" y="758" width="90" height="30" as="geometry"/>
                </mxCell>
                <mxCell id="qE0WKJXJSlHzk5M3Jkas-190" value="" style="edgeStyle=orthogonalEdgeStyle;html=1;startArrow=none;startFill=0;endArrow=none;endFill=0;" edge="1" parent="1" source="qE0WKJXJSlHzk5M3Jkas-154" target="qE0WKJXJSlHzk5M3Jkas-9">
                    <mxGeometry relative="1" as="geometry"/>
                </mxCell>
                <mxCell id="qE0WKJXJSlHzk5M3Jkas-154" value="is in" style="rhombus;whiteSpace=wrap;html=1;" vertex="1" parent="1">
                    <mxGeometry x="400.5" y="42.5" width="80" height="50" as="geometry"/>
                </mxCell>
                <mxCell id="qE0WKJXJSlHzk5M3Jkas-192" value="" style="edgeStyle=orthogonalEdgeStyle;html=1;startArrow=none;startFill=0;endArrow=none;endFill=0;" edge="1" parent="1" source="qE0WKJXJSlHzk5M3Jkas-155" target="qE0WKJXJSlHzk5M3Jkas-7">
                    <mxGeometry relative="1" as="geometry"/>
                </mxCell>
                <mxCell id="qE0WKJXJSlHzk5M3Jkas-155" value="is in" style="rhombus;whiteSpace=wrap;html=1;" vertex="1" parent="1">
                    <mxGeometry x="645.5" y="42.5" width="80" height="50" as="geometry"/>
                </mxCell>
                <mxCell id="qE0WKJXJSlHzk5M3Jkas-169" value="stop" style="ellipse;whiteSpace=wrap;html=1;" vertex="1" parent="1">
                    <mxGeometry x="-442" y="145" width="90" height="30" as="geometry"/>
                </mxCell>
                <mxCell id="7gKGgVt-wCmDqqd4ZTLD-1" style="edgeStyle=orthogonalEdgeStyle;html=1;exitX=1;exitY=0.5;exitDx=0;exitDy=0;entryX=0;entryY=0.5;entryDx=0;entryDy=0;startArrow=ERone;startFill=0;endArrow=ERone;endFill=0;" edge="1" parent="1" source="qE0WKJXJSlHzk5M3Jkas-193" target="qE0WKJXJSlHzk5M3Jkas-50">
                    <mxGeometry relative="1" as="geometry"/>
                </mxCell>
                <mxCell id="qE0WKJXJSlHzk5M3Jkas-193" value="recommendation" style="ellipse;whiteSpace=wrap;html=1;" vertex="1" parent="1">
                    <mxGeometry x="-14.5" y="268.75" width="100" height="30" as="geometry"/>
                </mxCell>
                <mxCell id="dR8OQqS2DcLk0PwpbHtC-1" value="post" style="ellipse;whiteSpace=wrap;html=1;" vertex="1" parent="1">
                    <mxGeometry x="-707.5" y="715.75" width="90" height="30" as="geometry"/>
                </mxCell>
                <mxCell id="mfZpgEICKgbTguonLtNj-7" style="edgeStyle=orthogonalEdgeStyle;html=1;exitX=1;exitY=0.5;exitDx=0;exitDy=0;entryX=0;entryY=0.5;entryDx=0;entryDy=0;startArrow=ERone;startFill=0;endArrow=ERmany;endFill=0;" edge="1" parent="1" source="dR8OQqS2DcLk0PwpbHtC-3" target="mfZpgEICKgbTguonLtNj-2">
                    <mxGeometry relative="1" as="geometry"/>
                </mxCell>
                <mxCell id="dR8OQqS2DcLk0PwpbHtC-3" value="accommodation" style="ellipse;whiteSpace=wrap;html=1;" vertex="1" parent="1">
                    <mxGeometry x="-14.5" y="227.5" width="90" height="30" as="geometry"/>
                </mxCell>
                <mxCell id="mfZpgEICKgbTguonLtNj-1" value="CostumAccom" style="rounded=1;whiteSpace=wrap;html=1;fillColor=#647687;fontColor=#ffffff;strokeColor=#314354;" vertex="1" parent="1">
                    <mxGeometry x="110.5" y="200" width="120" height="40" as="geometry"/>
                </mxCell>
                <mxCell id="mfZpgEICKgbTguonLtNj-2" value="id" style="ellipse;whiteSpace=wrap;html=1;" vertex="1" parent="1">
                    <mxGeometry x="125.5" y="257" width="90" height="25.5" as="geometry"/>
                </mxCell>
                <mxCell id="mfZpgEICKgbTguonLtNj-3" value="name" style="ellipse;whiteSpace=wrap;html=1;" vertex="1" parent="1">
                    <mxGeometry x="125.5" y="295" width="90" height="30" as="geometry"/>
                </mxCell>
                <mxCell id="mfZpgEICKgbTguonLtNj-4" value="location" style="ellipse;whiteSpace=wrap;html=1;" vertex="1" parent="1">
                    <mxGeometry x="125.5" y="337.5" width="90" height="30" as="geometry"/>
                </mxCell>
                <mxCell id="mfZpgEICKgbTguonLtNj-8" value="link" style="ellipse;whiteSpace=wrap;html=1;" vertex="1" parent="1">
                    <mxGeometry x="125.5" y="372.5" width="90" height="30" as="geometry"/>
                </mxCell>
            </root>
        </mxGraphModel>
    </diagram>
    <diagram id="QL9nuOerLaad2B5Ba0O0" name="uml">
        <mxGraphModel dx="933" dy="719" grid="1" gridSize="10" guides="1" tooltips="1" connect="1" arrows="1" fold="1" page="1" pageScale="1" pageWidth="850" pageHeight="1100" math="0" shadow="0">
            <root>
                <mxCell id="0"/>
                <mxCell id="1" parent="0"/>
                <mxCell id="2" value="user" style="swimlane;fontStyle=0;childLayout=stackLayout;horizontal=1;startSize=30;horizontalStack=0;resizeParent=1;resizeParentMax=0;resizeLast=0;collapsible=1;marginBottom=0;whiteSpace=wrap;html=1;fillColor=#60a917;fontColor=#ffffff;strokeColor=#2D7600;" parent="1" vertex="1">
                    <mxGeometry x="55" y="40" width="140" height="180" as="geometry"/>
                </mxCell>
                <mxCell id="3" value="id" style="text;strokeColor=none;fillColor=none;align=left;verticalAlign=middle;spacingLeft=4;spacingRight=4;overflow=hidden;points=[[0,0.5],[1,0.5]];portConstraint=eastwest;rotatable=0;whiteSpace=wrap;html=1;" parent="2" vertex="1">
                    <mxGeometry y="30" width="140" height="30" as="geometry"/>
                </mxCell>
                <mxCell id="ikKsOFVkQoC1-X4nZE8g-26" value="username" style="text;strokeColor=none;fillColor=none;align=left;verticalAlign=middle;spacingLeft=4;spacingRight=4;overflow=hidden;points=[[0,0.5],[1,0.5]];portConstraint=eastwest;rotatable=0;whiteSpace=wrap;html=1;" vertex="1" parent="2">
                    <mxGeometry y="60" width="140" height="30" as="geometry"/>
                </mxCell>
                <mxCell id="4" value="name" style="text;strokeColor=none;fillColor=none;align=left;verticalAlign=middle;spacingLeft=4;spacingRight=4;overflow=hidden;points=[[0,0.5],[1,0.5]];portConstraint=eastwest;rotatable=0;whiteSpace=wrap;html=1;" parent="2" vertex="1">
                    <mxGeometry y="90" width="140" height="30" as="geometry"/>
                </mxCell>
                <mxCell id="5" value="email" style="text;strokeColor=none;fillColor=none;align=left;verticalAlign=middle;spacingLeft=4;spacingRight=4;overflow=hidden;points=[[0,0.5],[1,0.5]];portConstraint=eastwest;rotatable=0;whiteSpace=wrap;html=1;" parent="2" vertex="1">
                    <mxGeometry y="120" width="140" height="30" as="geometry"/>
                </mxCell>
                <mxCell id="6" value="password" style="text;strokeColor=none;fillColor=none;align=left;verticalAlign=middle;spacingLeft=4;spacingRight=4;overflow=hidden;points=[[0,0.5],[1,0.5]];portConstraint=eastwest;rotatable=0;whiteSpace=wrap;html=1;" parent="2" vertex="1">
                    <mxGeometry y="150" width="140" height="30" as="geometry"/>
                </mxCell>
                <mxCell id="7" value="city" style="swimlane;fontStyle=0;childLayout=stackLayout;horizontal=1;startSize=30;horizontalStack=0;resizeParent=1;resizeParentMax=0;resizeLast=0;collapsible=1;marginBottom=0;whiteSpace=wrap;html=1;fillColor=#e3c800;fontColor=#000000;strokeColor=#B09500;" parent="1" vertex="1">
                    <mxGeometry x="65" y="480" width="140" height="150" as="geometry"/>
                </mxCell>
                <mxCell id="8" value="id" style="text;strokeColor=none;fillColor=none;align=left;verticalAlign=middle;spacingLeft=4;spacingRight=4;overflow=hidden;points=[[0,0.5],[1,0.5]];portConstraint=eastwest;rotatable=0;whiteSpace=wrap;html=1;" parent="7" vertex="1">
                    <mxGeometry y="30" width="140" height="30" as="geometry"/>
                </mxCell>
                <mxCell id="9" value="name" style="text;strokeColor=none;fillColor=none;align=left;verticalAlign=middle;spacingLeft=4;spacingRight=4;overflow=hidden;points=[[0,0.5],[1,0.5]];portConstraint=eastwest;rotatable=0;whiteSpace=wrap;html=1;" parent="7" vertex="1">
                    <mxGeometry y="60" width="140" height="30" as="geometry"/>
                </mxCell>
                <mxCell id="10" value="country_id" style="text;strokeColor=none;fillColor=none;align=left;verticalAlign=middle;spacingLeft=4;spacingRight=4;overflow=hidden;points=[[0,0.5],[1,0.5]];portConstraint=eastwest;rotatable=0;whiteSpace=wrap;html=1;" parent="7" vertex="1">
                    <mxGeometry y="90" width="140" height="30" as="geometry"/>
                </mxCell>
                <mxCell id="11" value="postal_code" style="text;strokeColor=none;fillColor=none;align=left;verticalAlign=middle;spacingLeft=4;spacingRight=4;overflow=hidden;points=[[0,0.5],[1,0.5]];portConstraint=eastwest;rotatable=0;whiteSpace=wrap;html=1;" parent="7" vertex="1">
                    <mxGeometry y="120" width="140" height="30" as="geometry"/>
                </mxCell>
                <mxCell id="12" value="country" style="swimlane;fontStyle=0;childLayout=stackLayout;horizontal=1;startSize=30;horizontalStack=0;resizeParent=1;resizeParentMax=0;resizeLast=0;collapsible=1;marginBottom=0;whiteSpace=wrap;html=1;fillColor=#e3c800;fontColor=#000000;strokeColor=#B09500;" parent="1" vertex="1">
                    <mxGeometry x="65" y="645" width="140" height="120" as="geometry"/>
                </mxCell>
                <mxCell id="13" value="id" style="text;strokeColor=none;fillColor=none;align=left;verticalAlign=middle;spacingLeft=4;spacingRight=4;overflow=hidden;points=[[0,0.5],[1,0.5]];portConstraint=eastwest;rotatable=0;whiteSpace=wrap;html=1;" parent="12" vertex="1">
                    <mxGeometry y="30" width="140" height="30" as="geometry"/>
                </mxCell>
                <mxCell id="14" value="name" style="text;strokeColor=none;fillColor=none;align=left;verticalAlign=middle;spacingLeft=4;spacingRight=4;overflow=hidden;points=[[0,0.5],[1,0.5]];portConstraint=eastwest;rotatable=0;whiteSpace=wrap;html=1;" parent="12" vertex="1">
                    <mxGeometry y="60" width="140" height="30" as="geometry"/>
                </mxCell>
                <mxCell id="15" value="continent_id" style="text;strokeColor=none;fillColor=none;align=left;verticalAlign=middle;spacingLeft=4;spacingRight=4;overflow=hidden;points=[[0,0.5],[1,0.5]];portConstraint=eastwest;rotatable=0;whiteSpace=wrap;html=1;" parent="12" vertex="1">
                    <mxGeometry y="90" width="140" height="30" as="geometry"/>
                </mxCell>
                <mxCell id="17" value="continent" style="swimlane;fontStyle=0;childLayout=stackLayout;horizontal=1;startSize=30;horizontalStack=0;resizeParent=1;resizeParentMax=0;resizeLast=0;collapsible=1;marginBottom=0;whiteSpace=wrap;html=1;fillColor=#60a917;fontColor=#ffffff;strokeColor=#2D7600;" parent="1" vertex="1">
                    <mxGeometry x="65" y="790" width="140" height="90" as="geometry"/>
                </mxCell>
                <mxCell id="18" value="id" style="text;strokeColor=none;fillColor=none;align=left;verticalAlign=middle;spacingLeft=4;spacingRight=4;overflow=hidden;points=[[0,0.5],[1,0.5]];portConstraint=eastwest;rotatable=0;whiteSpace=wrap;html=1;" parent="17" vertex="1">
                    <mxGeometry y="30" width="140" height="30" as="geometry"/>
                </mxCell>
                <mxCell id="19" value="name" style="text;strokeColor=none;fillColor=none;align=left;verticalAlign=middle;spacingLeft=4;spacingRight=4;overflow=hidden;points=[[0,0.5],[1,0.5]];portConstraint=eastwest;rotatable=0;whiteSpace=wrap;html=1;" parent="17" vertex="1">
                    <mxGeometry y="60" width="140" height="30" as="geometry"/>
                </mxCell>
                <mxCell id="21" value="trip" style="swimlane;fontStyle=0;childLayout=stackLayout;horizontal=1;startSize=30;horizontalStack=0;resizeParent=1;resizeParentMax=0;resizeLast=0;collapsible=1;marginBottom=0;whiteSpace=wrap;html=1;fillColor=#e3c800;fontColor=#000000;strokeColor=#B09500;" parent="1" vertex="1">
                    <mxGeometry x="40" y="300" width="140" height="150" as="geometry"/>
                </mxCell>
                <mxCell id="22" value="id" style="text;strokeColor=none;fillColor=none;align=left;verticalAlign=middle;spacingLeft=4;spacingRight=4;overflow=hidden;points=[[0,0.5],[1,0.5]];portConstraint=eastwest;rotatable=0;whiteSpace=wrap;html=1;" parent="21" vertex="1">
                    <mxGeometry y="30" width="140" height="30" as="geometry"/>
                </mxCell>
                <mxCell id="26" value="user" style="text;strokeColor=none;fillColor=none;align=left;verticalAlign=middle;spacingLeft=4;spacingRight=4;overflow=hidden;points=[[0,0.5],[1,0.5]];portConstraint=eastwest;rotatable=0;whiteSpace=wrap;html=1;" parent="21" vertex="1">
                    <mxGeometry y="60" width="140" height="30" as="geometry"/>
                </mxCell>
                <mxCell id="23" value="start_date" style="text;strokeColor=none;fillColor=none;align=left;verticalAlign=middle;spacingLeft=4;spacingRight=4;overflow=hidden;points=[[0,0.5],[1,0.5]];portConstraint=eastwest;rotatable=0;whiteSpace=wrap;html=1;" parent="21" vertex="1">
                    <mxGeometry y="90" width="140" height="30" as="geometry"/>
                </mxCell>
                <mxCell id="24" value="end_date" style="text;strokeColor=none;fillColor=none;align=left;verticalAlign=middle;spacingLeft=4;spacingRight=4;overflow=hidden;points=[[0,0.5],[1,0.5]];portConstraint=eastwest;rotatable=0;whiteSpace=wrap;html=1;" parent="21" vertex="1">
                    <mxGeometry y="120" width="140" height="30" as="geometry"/>
                </mxCell>
                <mxCell id="Ys8Gp_KHSyVphQgY-Q4w-27" value="friendship" style="swimlane;fontStyle=0;childLayout=stackLayout;horizontal=1;startSize=30;horizontalStack=0;resizeParent=1;resizeParentMax=0;resizeLast=0;collapsible=1;marginBottom=0;whiteSpace=wrap;html=1;fillColor=#e3c800;fontColor=#000000;strokeColor=#B09500;" vertex="1" parent="1">
                    <mxGeometry x="255" y="40" width="140" height="150" as="geometry"/>
                </mxCell>
                <mxCell id="Ys8Gp_KHSyVphQgY-Q4w-28" value="id" style="text;strokeColor=none;fillColor=none;align=left;verticalAlign=middle;spacingLeft=4;spacingRight=4;overflow=hidden;points=[[0,0.5],[1,0.5]];portConstraint=eastwest;rotatable=0;whiteSpace=wrap;html=1;" vertex="1" parent="Ys8Gp_KHSyVphQgY-Q4w-27">
                    <mxGeometry y="30" width="140" height="30" as="geometry"/>
                </mxCell>
                <mxCell id="Ys8Gp_KHSyVphQgY-Q4w-29" value="user" style="text;strokeColor=none;fillColor=none;align=left;verticalAlign=middle;spacingLeft=4;spacingRight=4;overflow=hidden;points=[[0,0.5],[1,0.5]];portConstraint=eastwest;rotatable=0;whiteSpace=wrap;html=1;" vertex="1" parent="Ys8Gp_KHSyVphQgY-Q4w-27">
                    <mxGeometry y="60" width="140" height="30" as="geometry"/>
                </mxCell>
                <mxCell id="Ys8Gp_KHSyVphQgY-Q4w-30" value="friend" style="text;strokeColor=none;fillColor=none;align=left;verticalAlign=middle;spacingLeft=4;spacingRight=4;overflow=hidden;points=[[0,0.5],[1,0.5]];portConstraint=eastwest;rotatable=0;whiteSpace=wrap;html=1;" vertex="1" parent="Ys8Gp_KHSyVphQgY-Q4w-27">
                    <mxGeometry y="90" width="140" height="30" as="geometry"/>
                </mxCell>
                <mxCell id="Ys8Gp_KHSyVphQgY-Q4w-31" value="friendship_date" style="text;strokeColor=none;fillColor=none;align=left;verticalAlign=middle;spacingLeft=4;spacingRight=4;overflow=hidden;points=[[0,0.5],[1,0.5]];portConstraint=eastwest;rotatable=0;whiteSpace=wrap;html=1;" vertex="1" parent="Ys8Gp_KHSyVphQgY-Q4w-27">
                    <mxGeometry y="120" width="140" height="30" as="geometry"/>
                </mxCell>
                <mxCell id="Ys8Gp_KHSyVphQgY-Q4w-40" style="edgeStyle=orthogonalEdgeStyle;html=1;exitX=1;exitY=0.5;exitDx=0;exitDy=0;entryX=1;entryY=0.5;entryDx=0;entryDy=0;startArrow=ERmany;startFill=0;endArrow=ERone;endFill=0;" edge="1" parent="1" source="10" target="13">
                    <mxGeometry relative="1" as="geometry"/>
                </mxCell>
                <mxCell id="Ys8Gp_KHSyVphQgY-Q4w-41" value="stops" style="swimlane;fontStyle=0;childLayout=stackLayout;horizontal=1;startSize=30;horizontalStack=0;resizeParent=1;resizeParentMax=0;resizeLast=0;collapsible=1;marginBottom=0;whiteSpace=wrap;html=1;fillColor=#e51400;fontColor=#ffffff;strokeColor=#B20000;" vertex="1" parent="1">
                    <mxGeometry x="265" y="300" width="140" height="180" as="geometry"/>
                </mxCell>
                <mxCell id="Ys8Gp_KHSyVphQgY-Q4w-42" value="id" style="text;strokeColor=none;fillColor=none;align=left;verticalAlign=middle;spacingLeft=4;spacingRight=4;overflow=hidden;points=[[0,0.5],[1,0.5]];portConstraint=eastwest;rotatable=0;whiteSpace=wrap;html=1;" vertex="1" parent="Ys8Gp_KHSyVphQgY-Q4w-41">
                    <mxGeometry y="30" width="140" height="30" as="geometry"/>
                </mxCell>
                <mxCell id="Ys8Gp_KHSyVphQgY-Q4w-43" value="trip" style="text;strokeColor=none;fillColor=none;align=left;verticalAlign=middle;spacingLeft=4;spacingRight=4;overflow=hidden;points=[[0,0.5],[1,0.5]];portConstraint=eastwest;rotatable=0;whiteSpace=wrap;html=1;" vertex="1" parent="Ys8Gp_KHSyVphQgY-Q4w-41">
                    <mxGeometry y="60" width="140" height="30" as="geometry"/>
                </mxCell>
                <mxCell id="Ys8Gp_KHSyVphQgY-Q4w-44" value="city" style="text;strokeColor=none;fillColor=none;align=left;verticalAlign=middle;spacingLeft=4;spacingRight=4;overflow=hidden;points=[[0,0.5],[1,0.5]];portConstraint=eastwest;rotatable=0;whiteSpace=wrap;html=1;" vertex="1" parent="Ys8Gp_KHSyVphQgY-Q4w-41">
                    <mxGeometry y="90" width="140" height="30" as="geometry"/>
                </mxCell>
                <mxCell id="Ys8Gp_KHSyVphQgY-Q4w-45" value="accommodation" style="text;strokeColor=none;fillColor=none;align=left;verticalAlign=middle;spacingLeft=4;spacingRight=4;overflow=hidden;points=[[0,0.5],[1,0.5]];portConstraint=eastwest;rotatable=0;whiteSpace=wrap;html=1;" vertex="1" parent="Ys8Gp_KHSyVphQgY-Q4w-41">
                    <mxGeometry y="120" width="140" height="30" as="geometry"/>
                </mxCell>
                <mxCell id="Ys8Gp_KHSyVphQgY-Q4w-46" value="recommendation" style="text;strokeColor=none;fillColor=none;align=left;verticalAlign=middle;spacingLeft=4;spacingRight=4;overflow=hidden;points=[[0,0.5],[1,0.5]];portConstraint=eastwest;rotatable=0;whiteSpace=wrap;html=1;" vertex="1" parent="Ys8Gp_KHSyVphQgY-Q4w-41">
                    <mxGeometry y="150" width="140" height="30" as="geometry"/>
                </mxCell>
                <mxCell id="Ys8Gp_KHSyVphQgY-Q4w-52" style="edgeStyle=orthogonalEdgeStyle;html=1;exitX=0;exitY=0.5;exitDx=0;exitDy=0;entryX=1;entryY=0.5;entryDx=0;entryDy=0;startArrow=ERmany;startFill=0;endArrow=ERone;endFill=0;" edge="1" parent="1" source="Ys8Gp_KHSyVphQgY-Q4w-44" target="8">
                    <mxGeometry relative="1" as="geometry"/>
                </mxCell>
                <mxCell id="tO_BqZc7I0VvvGWtf8oD-26" value="posts" style="swimlane;fontStyle=0;childLayout=stackLayout;horizontal=1;startSize=30;horizontalStack=0;resizeParent=1;resizeParentMax=0;resizeLast=0;collapsible=1;marginBottom=0;whiteSpace=wrap;html=1;fillColor=#0050ef;fontColor=#ffffff;strokeColor=#001DBC;" vertex="1" parent="1">
                    <mxGeometry x="465" y="300" width="140" height="300" as="geometry"/>
                </mxCell>
                <mxCell id="tO_BqZc7I0VvvGWtf8oD-27" value="id" style="text;strokeColor=none;fillColor=none;align=left;verticalAlign=middle;spacingLeft=4;spacingRight=4;overflow=hidden;points=[[0,0.5],[1,0.5]];portConstraint=eastwest;rotatable=0;whiteSpace=wrap;html=1;" vertex="1" parent="tO_BqZc7I0VvvGWtf8oD-26">
                    <mxGeometry y="30" width="140" height="30" as="geometry"/>
                </mxCell>
                <mxCell id="tO_BqZc7I0VvvGWtf8oD-28" value="stop" style="text;strokeColor=none;fillColor=none;align=left;verticalAlign=middle;spacingLeft=4;spacingRight=4;overflow=hidden;points=[[0,0.5],[1,0.5]];portConstraint=eastwest;rotatable=0;whiteSpace=wrap;html=1;" vertex="1" parent="tO_BqZc7I0VvvGWtf8oD-26">
                    <mxGeometry y="60" width="140" height="30" as="geometry"/>
                </mxCell>
                <mxCell id="tO_BqZc7I0VvvGWtf8oD-29" value="day" style="text;strokeColor=none;fillColor=none;align=left;verticalAlign=middle;spacingLeft=4;spacingRight=4;overflow=hidden;points=[[0,0.5],[1,0.5]];portConstraint=eastwest;rotatable=0;whiteSpace=wrap;html=1;" vertex="1" parent="tO_BqZc7I0VvvGWtf8oD-26">
                    <mxGeometry y="90" width="140" height="30" as="geometry"/>
                </mxCell>
                <mxCell id="tO_BqZc7I0VvvGWtf8oD-30" value="date" style="text;strokeColor=none;fillColor=none;align=left;verticalAlign=middle;spacingLeft=4;spacingRight=4;overflow=hidden;points=[[0,0.5],[1,0.5]];portConstraint=eastwest;rotatable=0;whiteSpace=wrap;html=1;" vertex="1" parent="tO_BqZc7I0VvvGWtf8oD-26">
                    <mxGeometry y="120" width="140" height="30" as="geometry"/>
                </mxCell>
                <mxCell id="tO_BqZc7I0VvvGWtf8oD-31" value="time" style="text;strokeColor=none;fillColor=none;align=left;verticalAlign=middle;spacingLeft=4;spacingRight=4;overflow=hidden;points=[[0,0.5],[1,0.5]];portConstraint=eastwest;rotatable=0;whiteSpace=wrap;html=1;" vertex="1" parent="tO_BqZc7I0VvvGWtf8oD-26">
                    <mxGeometry y="150" width="140" height="30" as="geometry"/>
                </mxCell>
                <mxCell id="tO_BqZc7I0VvvGWtf8oD-32" value="description" style="text;strokeColor=none;fillColor=none;align=left;verticalAlign=middle;spacingLeft=4;spacingRight=4;overflow=hidden;points=[[0,0.5],[1,0.5]];portConstraint=eastwest;rotatable=0;whiteSpace=wrap;html=1;" vertex="1" parent="tO_BqZc7I0VvvGWtf8oD-26">
                    <mxGeometry y="180" width="140" height="30" as="geometry"/>
                </mxCell>
                <mxCell id="tO_BqZc7I0VvvGWtf8oD-33" value="image" style="text;strokeColor=none;fillColor=none;align=left;verticalAlign=middle;spacingLeft=4;spacingRight=4;overflow=hidden;points=[[0,0.5],[1,0.5]];portConstraint=eastwest;rotatable=0;whiteSpace=wrap;html=1;" vertex="1" parent="tO_BqZc7I0VvvGWtf8oD-26">
                    <mxGeometry y="210" width="140" height="30" as="geometry"/>
                </mxCell>
                <mxCell id="tO_BqZc7I0VvvGWtf8oD-34" value="comments" style="text;strokeColor=none;fillColor=none;align=left;verticalAlign=middle;spacingLeft=4;spacingRight=4;overflow=hidden;points=[[0,0.5],[1,0.5]];portConstraint=eastwest;rotatable=0;whiteSpace=wrap;html=1;" vertex="1" parent="tO_BqZc7I0VvvGWtf8oD-26">
                    <mxGeometry y="240" width="140" height="30" as="geometry"/>
                </mxCell>
                <mxCell id="tO_BqZc7I0VvvGWtf8oD-35" value="likes: INT" style="text;strokeColor=none;fillColor=none;align=left;verticalAlign=middle;spacingLeft=4;spacingRight=4;overflow=hidden;points=[[0,0.5],[1,0.5]];portConstraint=eastwest;rotatable=0;whiteSpace=wrap;html=1;" vertex="1" parent="tO_BqZc7I0VvvGWtf8oD-26">
                    <mxGeometry y="270" width="140" height="30" as="geometry"/>
                </mxCell>
                <mxCell id="Uiau_7sTvXuthJcZ9piZ-26" style="edgeStyle=orthogonalEdgeStyle;html=1;exitX=1;exitY=0.5;exitDx=0;exitDy=0;entryX=0;entryY=0.5;entryDx=0;entryDy=0;startArrow=ERone;startFill=0;endArrow=ERmany;endFill=0;" edge="1" parent="1" source="Ys8Gp_KHSyVphQgY-Q4w-42" target="tO_BqZc7I0VvvGWtf8oD-28">
                    <mxGeometry relative="1" as="geometry"/>
                </mxCell>
                <mxCell id="Uiau_7sTvXuthJcZ9piZ-27" value="comments" style="swimlane;fontStyle=0;childLayout=stackLayout;horizontal=1;startSize=30;horizontalStack=0;resizeParent=1;resizeParentMax=0;resizeLast=0;collapsible=1;marginBottom=0;whiteSpace=wrap;html=1;fillColor=#6a00ff;fontColor=#ffffff;strokeColor=#3700CC;" vertex="1" parent="1">
                    <mxGeometry x="665" y="300" width="140" height="270" as="geometry"/>
                </mxCell>
                <mxCell id="Uiau_7sTvXuthJcZ9piZ-28" value="id" style="text;strokeColor=none;fillColor=none;align=left;verticalAlign=middle;spacingLeft=4;spacingRight=4;overflow=hidden;points=[[0,0.5],[1,0.5]];portConstraint=eastwest;rotatable=0;whiteSpace=wrap;html=1;" vertex="1" parent="Uiau_7sTvXuthJcZ9piZ-27">
                    <mxGeometry y="30" width="140" height="30" as="geometry"/>
                </mxCell>
                <mxCell id="Uiau_7sTvXuthJcZ9piZ-29" value="user" style="text;strokeColor=none;fillColor=none;align=left;verticalAlign=middle;spacingLeft=4;spacingRight=4;overflow=hidden;points=[[0,0.5],[1,0.5]];portConstraint=eastwest;rotatable=0;whiteSpace=wrap;html=1;" vertex="1" parent="Uiau_7sTvXuthJcZ9piZ-27">
                    <mxGeometry y="60" width="140" height="30" as="geometry"/>
                </mxCell>
                <mxCell id="Uiau_7sTvXuthJcZ9piZ-30" value="post" style="text;strokeColor=none;fillColor=none;align=left;verticalAlign=middle;spacingLeft=4;spacingRight=4;overflow=hidden;points=[[0,0.5],[1,0.5]];portConstraint=eastwest;rotatable=0;whiteSpace=wrap;html=1;" vertex="1" parent="Uiau_7sTvXuthJcZ9piZ-27">
                    <mxGeometry y="90" width="140" height="30" as="geometry"/>
                </mxCell>
                <mxCell id="Uiau_7sTvXuthJcZ9piZ-34" value="day" style="text;strokeColor=none;fillColor=none;align=left;verticalAlign=middle;spacingLeft=4;spacingRight=4;overflow=hidden;points=[[0,0.5],[1,0.5]];portConstraint=eastwest;rotatable=0;whiteSpace=wrap;html=1;" vertex="1" parent="Uiau_7sTvXuthJcZ9piZ-27">
                    <mxGeometry y="120" width="140" height="30" as="geometry"/>
                </mxCell>
                <mxCell id="Uiau_7sTvXuthJcZ9piZ-31" value="date" style="text;strokeColor=none;fillColor=none;align=left;verticalAlign=middle;spacingLeft=4;spacingRight=4;overflow=hidden;points=[[0,0.5],[1,0.5]];portConstraint=eastwest;rotatable=0;whiteSpace=wrap;html=1;" vertex="1" parent="Uiau_7sTvXuthJcZ9piZ-27">
                    <mxGeometry y="150" width="140" height="30" as="geometry"/>
                </mxCell>
                <mxCell id="Uiau_7sTvXuthJcZ9piZ-32" value="time" style="text;strokeColor=none;fillColor=none;align=left;verticalAlign=middle;spacingLeft=4;spacingRight=4;overflow=hidden;points=[[0,0.5],[1,0.5]];portConstraint=eastwest;rotatable=0;whiteSpace=wrap;html=1;" vertex="1" parent="Uiau_7sTvXuthJcZ9piZ-27">
                    <mxGeometry y="180" width="140" height="30" as="geometry"/>
                </mxCell>
                <mxCell id="Uiau_7sTvXuthJcZ9piZ-33" value="text" style="text;strokeColor=none;fillColor=none;align=left;verticalAlign=middle;spacingLeft=4;spacingRight=4;overflow=hidden;points=[[0,0.5],[1,0.5]];portConstraint=eastwest;rotatable=0;whiteSpace=wrap;html=1;" vertex="1" parent="Uiau_7sTvXuthJcZ9piZ-27">
                    <mxGeometry y="210" width="140" height="30" as="geometry"/>
                </mxCell>
                <mxCell id="Uiau_7sTvXuthJcZ9piZ-36" value="likes: INT" style="text;strokeColor=none;fillColor=none;align=left;verticalAlign=middle;spacingLeft=4;spacingRight=4;overflow=hidden;points=[[0,0.5],[1,0.5]];portConstraint=eastwest;rotatable=0;whiteSpace=wrap;html=1;" vertex="1" parent="Uiau_7sTvXuthJcZ9piZ-27">
                    <mxGeometry y="240" width="140" height="30" as="geometry"/>
                </mxCell>
                <mxCell id="nnG8tUaMf5tyU_F_W2xU-37" style="edgeStyle=orthogonalEdgeStyle;html=1;exitX=1;exitY=0.5;exitDx=0;exitDy=0;startArrow=ERone;startFill=0;endArrow=ERmany;endFill=0;" edge="1" parent="1" source="18" target="15">
                    <mxGeometry relative="1" as="geometry"/>
                </mxCell>
                <mxCell id="D8XmjEoY5jjXRZL4nOvF-26" value="costumAccommodation" style="swimlane;fontStyle=0;childLayout=stackLayout;horizontal=1;startSize=30;horizontalStack=0;resizeParent=1;resizeParentMax=0;resizeLast=0;collapsible=1;marginBottom=0;whiteSpace=wrap;html=1;fillColor=#0050ef;fontColor=#ffffff;strokeColor=#001DBC;" vertex="1" parent="1">
                    <mxGeometry x="265" y="530" width="140" height="150" as="geometry"/>
                </mxCell>
                <mxCell id="D8XmjEoY5jjXRZL4nOvF-27" value="id" style="text;strokeColor=none;fillColor=none;align=left;verticalAlign=middle;spacingLeft=4;spacingRight=4;overflow=hidden;points=[[0,0.5],[1,0.5]];portConstraint=eastwest;rotatable=0;whiteSpace=wrap;html=1;" vertex="1" parent="D8XmjEoY5jjXRZL4nOvF-26">
                    <mxGeometry y="30" width="140" height="30" as="geometry"/>
                </mxCell>
                <mxCell id="D8XmjEoY5jjXRZL4nOvF-28" value="name" style="text;strokeColor=none;fillColor=none;align=left;verticalAlign=middle;spacingLeft=4;spacingRight=4;overflow=hidden;points=[[0,0.5],[1,0.5]];portConstraint=eastwest;rotatable=0;whiteSpace=wrap;html=1;" vertex="1" parent="D8XmjEoY5jjXRZL4nOvF-26">
                    <mxGeometry y="60" width="140" height="30" as="geometry"/>
                </mxCell>
                <mxCell id="D8XmjEoY5jjXRZL4nOvF-29" value="location" style="text;strokeColor=none;fillColor=none;align=left;verticalAlign=middle;spacingLeft=4;spacingRight=4;overflow=hidden;points=[[0,0.5],[1,0.5]];portConstraint=eastwest;rotatable=0;whiteSpace=wrap;html=1;" vertex="1" parent="D8XmjEoY5jjXRZL4nOvF-26">
                    <mxGeometry y="90" width="140" height="30" as="geometry"/>
                </mxCell>
                <mxCell id="D8XmjEoY5jjXRZL4nOvF-31" value="link" style="text;strokeColor=none;fillColor=none;align=left;verticalAlign=middle;spacingLeft=4;spacingRight=4;overflow=hidden;points=[[0,0.5],[1,0.5]];portConstraint=eastwest;rotatable=0;whiteSpace=wrap;html=1;" vertex="1" parent="D8XmjEoY5jjXRZL4nOvF-26">
                    <mxGeometry y="120" width="140" height="30" as="geometry"/>
                </mxCell>
                <mxCell id="nWb80Z4XiLJGa0FgCURq-27" style="edgeStyle=orthogonalEdgeStyle;html=1;exitX=1;exitY=0.5;exitDx=0;exitDy=0;entryX=1;entryY=0.5;entryDx=0;entryDy=0;startArrow=ERone;startFill=0;endArrow=ERmany;endFill=0;" edge="1" parent="1" source="Ys8Gp_KHSyVphQgY-Q4w-45" target="D8XmjEoY5jjXRZL4nOvF-27">
                    <mxGeometry relative="1" as="geometry"/>
                </mxCell>
                <mxCell id="nWb80Z4XiLJGa0FgCURq-28" value="Activity" style="swimlane;fontStyle=0;childLayout=stackLayout;horizontal=1;startSize=30;horizontalStack=0;resizeParent=1;resizeParentMax=0;resizeLast=0;collapsible=1;marginBottom=0;whiteSpace=wrap;html=1;fillColor=#60a917;fontColor=#ffffff;strokeColor=#2D7600;" vertex="1" parent="1">
                    <mxGeometry x="635" y="820" width="140" height="150" as="geometry"/>
                </mxCell>
                <mxCell id="nWb80Z4XiLJGa0FgCURq-29" value="id" style="text;strokeColor=none;fillColor=none;align=left;verticalAlign=middle;spacingLeft=4;spacingRight=4;overflow=hidden;points=[[0,0.5],[1,0.5]];portConstraint=eastwest;rotatable=0;whiteSpace=wrap;html=1;" vertex="1" parent="nWb80Z4XiLJGa0FgCURq-28">
                    <mxGeometry y="30" width="140" height="30" as="geometry"/>
                </mxCell>
                <mxCell id="nWb80Z4XiLJGa0FgCURq-30" value="name" style="text;strokeColor=none;fillColor=none;align=left;verticalAlign=middle;spacingLeft=4;spacingRight=4;overflow=hidden;points=[[0,0.5],[1,0.5]];portConstraint=eastwest;rotatable=0;whiteSpace=wrap;html=1;" vertex="1" parent="nWb80Z4XiLJGa0FgCURq-28">
                    <mxGeometry y="60" width="140" height="30" as="geometry"/>
                </mxCell>
                <mxCell id="nWb80Z4XiLJGa0FgCURq-31" value="location" style="text;strokeColor=none;fillColor=none;align=left;verticalAlign=middle;spacingLeft=4;spacingRight=4;overflow=hidden;points=[[0,0.5],[1,0.5]];portConstraint=eastwest;rotatable=0;whiteSpace=wrap;html=1;" vertex="1" parent="nWb80Z4XiLJGa0FgCURq-28">
                    <mxGeometry y="90" width="140" height="30" as="geometry"/>
                </mxCell>
                <mxCell id="nWb80Z4XiLJGa0FgCURq-32" value="link" style="text;strokeColor=none;fillColor=none;align=left;verticalAlign=middle;spacingLeft=4;spacingRight=4;overflow=hidden;points=[[0,0.5],[1,0.5]];portConstraint=eastwest;rotatable=0;whiteSpace=wrap;html=1;" vertex="1" parent="nWb80Z4XiLJGa0FgCURq-28">
                    <mxGeometry y="120" width="140" height="30" as="geometry"/>
                </mxCell>
                <mxCell id="nWb80Z4XiLJGa0FgCURq-33" value="Restaurant" style="swimlane;fontStyle=0;childLayout=stackLayout;horizontal=1;startSize=30;horizontalStack=0;resizeParent=1;resizeParentMax=0;resizeLast=0;collapsible=1;marginBottom=0;whiteSpace=wrap;html=1;fillColor=#60a917;fontColor=#ffffff;strokeColor=#2D7600;" vertex="1" parent="1">
                    <mxGeometry x="635" y="600" width="140" height="150" as="geometry"/>
                </mxCell>
                <mxCell id="nWb80Z4XiLJGa0FgCURq-34" value="id" style="text;strokeColor=none;fillColor=none;align=left;verticalAlign=middle;spacingLeft=4;spacingRight=4;overflow=hidden;points=[[0,0.5],[1,0.5]];portConstraint=eastwest;rotatable=0;whiteSpace=wrap;html=1;" vertex="1" parent="nWb80Z4XiLJGa0FgCURq-33">
                    <mxGeometry y="30" width="140" height="30" as="geometry"/>
                </mxCell>
                <mxCell id="nWb80Z4XiLJGa0FgCURq-35" value="name" style="text;strokeColor=none;fillColor=none;align=left;verticalAlign=middle;spacingLeft=4;spacingRight=4;overflow=hidden;points=[[0,0.5],[1,0.5]];portConstraint=eastwest;rotatable=0;whiteSpace=wrap;html=1;" vertex="1" parent="nWb80Z4XiLJGa0FgCURq-33">
                    <mxGeometry y="60" width="140" height="30" as="geometry"/>
                </mxCell>
                <mxCell id="nWb80Z4XiLJGa0FgCURq-36" value="location" style="text;strokeColor=none;fillColor=none;align=left;verticalAlign=middle;spacingLeft=4;spacingRight=4;overflow=hidden;points=[[0,0.5],[1,0.5]];portConstraint=eastwest;rotatable=0;whiteSpace=wrap;html=1;" vertex="1" parent="nWb80Z4XiLJGa0FgCURq-33">
                    <mxGeometry y="90" width="140" height="30" as="geometry"/>
                </mxCell>
                <mxCell id="nWb80Z4XiLJGa0FgCURq-37" value="link" style="text;strokeColor=none;fillColor=none;align=left;verticalAlign=middle;spacingLeft=4;spacingRight=4;overflow=hidden;points=[[0,0.5],[1,0.5]];portConstraint=eastwest;rotatable=0;whiteSpace=wrap;html=1;" vertex="1" parent="nWb80Z4XiLJGa0FgCURq-33">
                    <mxGeometry y="120" width="140" height="30" as="geometry"/>
                </mxCell>
                <mxCell id="nWb80Z4XiLJGa0FgCURq-38" value="Accommodation" style="swimlane;fontStyle=0;childLayout=stackLayout;horizontal=1;startSize=30;horizontalStack=0;resizeParent=1;resizeParentMax=0;resizeLast=0;collapsible=1;marginBottom=0;whiteSpace=wrap;html=1;fillColor=#60a917;fontColor=#ffffff;strokeColor=#2D7600;" vertex="1" parent="1">
                    <mxGeometry x="455" y="680" width="140" height="150" as="geometry"/>
                </mxCell>
                <mxCell id="nWb80Z4XiLJGa0FgCURq-39" value="id" style="text;strokeColor=none;fillColor=none;align=left;verticalAlign=middle;spacingLeft=4;spacingRight=4;overflow=hidden;points=[[0,0.5],[1,0.5]];portConstraint=eastwest;rotatable=0;whiteSpace=wrap;html=1;" vertex="1" parent="nWb80Z4XiLJGa0FgCURq-38">
                    <mxGeometry y="30" width="140" height="30" as="geometry"/>
                </mxCell>
                <mxCell id="nWb80Z4XiLJGa0FgCURq-40" value="name" style="text;strokeColor=none;fillColor=none;align=left;verticalAlign=middle;spacingLeft=4;spacingRight=4;overflow=hidden;points=[[0,0.5],[1,0.5]];portConstraint=eastwest;rotatable=0;whiteSpace=wrap;html=1;" vertex="1" parent="nWb80Z4XiLJGa0FgCURq-38">
                    <mxGeometry y="60" width="140" height="30" as="geometry"/>
                </mxCell>
                <mxCell id="nWb80Z4XiLJGa0FgCURq-41" value="location" style="text;strokeColor=none;fillColor=none;align=left;verticalAlign=middle;spacingLeft=4;spacingRight=4;overflow=hidden;points=[[0,0.5],[1,0.5]];portConstraint=eastwest;rotatable=0;whiteSpace=wrap;html=1;" vertex="1" parent="nWb80Z4XiLJGa0FgCURq-38">
                    <mxGeometry y="90" width="140" height="30" as="geometry"/>
                </mxCell>
                <mxCell id="nWb80Z4XiLJGa0FgCURq-42" value="link" style="text;strokeColor=none;fillColor=none;align=left;verticalAlign=middle;spacingLeft=4;spacingRight=4;overflow=hidden;points=[[0,0.5],[1,0.5]];portConstraint=eastwest;rotatable=0;whiteSpace=wrap;html=1;" vertex="1" parent="nWb80Z4XiLJGa0FgCURq-38">
                    <mxGeometry y="120" width="140" height="30" as="geometry"/>
                </mxCell>
                <mxCell id="LqsxDe8iYcBTE4jxifXe-26" value="recommendation" style="swimlane;fontStyle=0;childLayout=stackLayout;horizontal=1;startSize=30;horizontalStack=0;resizeParent=1;resizeParentMax=0;resizeLast=0;collapsible=1;marginBottom=0;whiteSpace=wrap;html=1;fillColor=#e3c800;fontColor=#000000;strokeColor=#B09500;" vertex="1" parent="1">
                    <mxGeometry x="265" y="710" width="140" height="120" as="geometry"/>
                </mxCell>
                <mxCell id="LqsxDe8iYcBTE4jxifXe-27" value="id" style="text;strokeColor=none;fillColor=none;align=left;verticalAlign=middle;spacingLeft=4;spacingRight=4;overflow=hidden;points=[[0,0.5],[1,0.5]];portConstraint=eastwest;rotatable=0;whiteSpace=wrap;html=1;" vertex="1" parent="LqsxDe8iYcBTE4jxifXe-26">
                    <mxGeometry y="30" width="140" height="30" as="geometry"/>
                </mxCell>
                <mxCell id="LqsxDe8iYcBTE4jxifXe-28" value="city" style="text;strokeColor=none;fillColor=none;align=left;verticalAlign=middle;spacingLeft=4;spacingRight=4;overflow=hidden;points=[[0,0.5],[1,0.5]];portConstraint=eastwest;rotatable=0;whiteSpace=wrap;html=1;" vertex="1" parent="LqsxDe8iYcBTE4jxifXe-26">
                    <mxGeometry y="60" width="140" height="30" as="geometry"/>
                </mxCell>
                <mxCell id="LqsxDe8iYcBTE4jxifXe-29" value="type" style="text;strokeColor=none;fillColor=none;align=left;verticalAlign=middle;spacingLeft=4;spacingRight=4;overflow=hidden;points=[[0,0.5],[1,0.5]];portConstraint=eastwest;rotatable=0;whiteSpace=wrap;html=1;" vertex="1" parent="LqsxDe8iYcBTE4jxifXe-26">
                    <mxGeometry y="90" width="140" height="30" as="geometry"/>
                </mxCell>
                <mxCell id="ewK3-dxUg_UETs0A6Sj9-27" style="edgeStyle=orthogonalEdgeStyle;html=1;exitX=0;exitY=0.5;exitDx=0;exitDy=0;entryX=1;entryY=0.5;entryDx=0;entryDy=0;startArrow=ERmany;startFill=0;endArrow=ERone;endFill=0;" edge="1" parent="1" source="LqsxDe8iYcBTE4jxifXe-28" target="8">
                    <mxGeometry relative="1" as="geometry"/>
                </mxCell>
                <mxCell id="lwa02RHeS9L2uHkpKyqo-27" style="edgeStyle=orthogonalEdgeStyle;html=1;exitX=0;exitY=0.5;exitDx=0;exitDy=0;startArrow=ERmany;startFill=0;endArrow=ERone;endFill=0;" edge="1" parent="1" source="nWb80Z4XiLJGa0FgCURq-39" target="LqsxDe8iYcBTE4jxifXe-29">
                    <mxGeometry relative="1" as="geometry"/>
                </mxCell>
                <mxCell id="lwa02RHeS9L2uHkpKyqo-31" style="edgeStyle=orthogonalEdgeStyle;html=1;exitX=0;exitY=0.5;exitDx=0;exitDy=0;entryX=0;entryY=0.5;entryDx=0;entryDy=0;startArrow=ERone;startFill=0;endArrow=ERmany;endFill=0;" edge="1" parent="1" source="3" target="26">
                    <mxGeometry relative="1" as="geometry"/>
                </mxCell>
                <mxCell id="lwa02RHeS9L2uHkpKyqo-33" style="edgeStyle=orthogonalEdgeStyle;html=1;exitX=1;exitY=0.5;exitDx=0;exitDy=0;entryX=0;entryY=0.5;entryDx=0;entryDy=0;startArrow=ERone;startFill=0;endArrow=ERone;endFill=0;" edge="1" parent="1" source="ikKsOFVkQoC1-X4nZE8g-26" target="Ys8Gp_KHSyVphQgY-Q4w-27">
                    <mxGeometry relative="1" as="geometry"/>
                </mxCell>
                <mxCell id="w_LuZQLw6DQeUm5PI0Xp-26" value="itineraryItems" style="swimlane;fontStyle=0;childLayout=stackLayout;horizontal=1;startSize=30;horizontalStack=0;resizeParent=1;resizeParentMax=0;resizeLast=0;collapsible=1;marginBottom=0;whiteSpace=wrap;html=1;fillColor=#e51400;fontColor=#ffffff;strokeColor=#B20000;" vertex="1" parent="1">
                    <mxGeometry x="475" y="40" width="140" height="240" as="geometry"/>
                </mxCell>
                <mxCell id="w_LuZQLw6DQeUm5PI0Xp-27" value="id" style="text;strokeColor=none;fillColor=none;align=left;verticalAlign=middle;spacingLeft=4;spacingRight=4;overflow=hidden;points=[[0,0.5],[1,0.5]];portConstraint=eastwest;rotatable=0;whiteSpace=wrap;html=1;" vertex="1" parent="w_LuZQLw6DQeUm5PI0Xp-26">
                    <mxGeometry y="30" width="140" height="30" as="geometry"/>
                </mxCell>
                <mxCell id="w_LuZQLw6DQeUm5PI0Xp-28" value="trip" style="text;strokeColor=none;fillColor=none;align=left;verticalAlign=middle;spacingLeft=4;spacingRight=4;overflow=hidden;points=[[0,0.5],[1,0.5]];portConstraint=eastwest;rotatable=0;whiteSpace=wrap;html=1;" vertex="1" parent="w_LuZQLw6DQeUm5PI0Xp-26">
                    <mxGeometry y="60" width="140" height="30" as="geometry"/>
                </mxCell>
                <mxCell id="w_LuZQLw6DQeUm5PI0Xp-30" value="day" style="text;strokeColor=none;fillColor=none;align=left;verticalAlign=middle;spacingLeft=4;spacingRight=4;overflow=hidden;points=[[0,0.5],[1,0.5]];portConstraint=eastwest;rotatable=0;whiteSpace=wrap;html=1;" vertex="1" parent="w_LuZQLw6DQeUm5PI0Xp-26">
                    <mxGeometry y="90" width="140" height="30" as="geometry"/>
                </mxCell>
                <mxCell id="w_LuZQLw6DQeUm5PI0Xp-31" value="date" style="text;strokeColor=none;fillColor=none;align=left;verticalAlign=middle;spacingLeft=4;spacingRight=4;overflow=hidden;points=[[0,0.5],[1,0.5]];portConstraint=eastwest;rotatable=0;whiteSpace=wrap;html=1;" vertex="1" parent="w_LuZQLw6DQeUm5PI0Xp-26">
                    <mxGeometry y="120" width="140" height="30" as="geometry"/>
                </mxCell>
                <mxCell id="w_LuZQLw6DQeUm5PI0Xp-32" value="time" style="text;strokeColor=none;fillColor=none;align=left;verticalAlign=middle;spacingLeft=4;spacingRight=4;overflow=hidden;points=[[0,0.5],[1,0.5]];portConstraint=eastwest;rotatable=0;whiteSpace=wrap;html=1;" vertex="1" parent="w_LuZQLw6DQeUm5PI0Xp-26">
                    <mxGeometry y="150" width="140" height="30" as="geometry"/>
                </mxCell>
                <mxCell id="w_LuZQLw6DQeUm5PI0Xp-33" value="description" style="text;strokeColor=none;fillColor=none;align=left;verticalAlign=middle;spacingLeft=4;spacingRight=4;overflow=hidden;points=[[0,0.5],[1,0.5]];portConstraint=eastwest;rotatable=0;whiteSpace=wrap;html=1;" vertex="1" parent="w_LuZQLw6DQeUm5PI0Xp-26">
                    <mxGeometry y="180" width="140" height="30" as="geometry"/>
                </mxCell>
                <mxCell id="w_LuZQLw6DQeUm5PI0Xp-34" value="recommendation" style="text;strokeColor=none;fillColor=none;align=left;verticalAlign=middle;spacingLeft=4;spacingRight=4;overflow=hidden;points=[[0,0.5],[1,0.5]];portConstraint=eastwest;rotatable=0;whiteSpace=wrap;html=1;" vertex="1" parent="w_LuZQLw6DQeUm5PI0Xp-26">
                    <mxGeometry y="210" width="140" height="30" as="geometry"/>
                </mxCell>
                <mxCell id="WAmyDHrhTxy1DCmz9roK-27" style="edgeStyle=orthogonalEdgeStyle;html=1;exitX=0;exitY=0.5;exitDx=0;exitDy=0;entryX=1;entryY=0.5;entryDx=0;entryDy=0;startArrow=ERmany;startFill=0;endArrow=ERone;endFill=0;" edge="1" parent="1" source="nWb80Z4XiLJGa0FgCURq-34" target="LqsxDe8iYcBTE4jxifXe-29">
                    <mxGeometry relative="1" as="geometry">
                        <Array as="points">
                            <mxPoint x="425" y="645"/>
                            <mxPoint x="425" y="815"/>
                        </Array>
                    </mxGeometry>
                </mxCell>
                <mxCell id="WAmyDHrhTxy1DCmz9roK-29" style="edgeStyle=orthogonalEdgeStyle;html=1;exitX=0;exitY=0.5;exitDx=0;exitDy=0;entryX=1;entryY=0.5;entryDx=0;entryDy=0;startArrow=ERmany;startFill=0;endArrow=ERone;endFill=0;" edge="1" parent="1" source="nWb80Z4XiLJGa0FgCURq-29" target="LqsxDe8iYcBTE4jxifXe-29">
                    <mxGeometry relative="1" as="geometry">
                        <Array as="points">
                            <mxPoint x="435" y="865"/>
                            <mxPoint x="435" y="815"/>
                        </Array>
                    </mxGeometry>
                </mxCell>
                <mxCell id="eWS6GLb7mr0dFVbrtanr-26" style="edgeStyle=orthogonalEdgeStyle;html=1;exitX=0;exitY=0.5;exitDx=0;exitDy=0;entryX=1;entryY=0.5;entryDx=0;entryDy=0;startArrow=ERmany;startFill=0;endArrow=ERone;endFill=0;" edge="1" parent="1" source="Uiau_7sTvXuthJcZ9piZ-30" target="tO_BqZc7I0VvvGWtf8oD-27">
                    <mxGeometry relative="1" as="geometry"/>
                </mxCell>
                <mxCell id="lQSR2FXTDiS7bUAo7AVi-27" style="edgeStyle=orthogonalEdgeStyle;html=1;exitX=1;exitY=0.5;exitDx=0;exitDy=0;entryX=0;entryY=0.5;entryDx=0;entryDy=0;startArrow=ERone;startFill=0;endArrow=ERmany;endFill=0;" edge="1" parent="1" source="22" target="Ys8Gp_KHSyVphQgY-Q4w-43">
                    <mxGeometry relative="1" as="geometry"/>
                </mxCell>
                <mxCell id="lQSR2FXTDiS7bUAo7AVi-28" style="edgeStyle=orthogonalEdgeStyle;html=1;exitX=1;exitY=0.5;exitDx=0;exitDy=0;entryX=0;entryY=0.5;entryDx=0;entryDy=0;startArrow=ERone;startFill=0;endArrow=ERmany;endFill=0;" edge="1" parent="1" source="22" target="w_LuZQLw6DQeUm5PI0Xp-28">
                    <mxGeometry relative="1" as="geometry">
                        <Array as="points">
                            <mxPoint x="220" y="345"/>
                            <mxPoint x="220" y="250"/>
                            <mxPoint x="440" y="250"/>
                            <mxPoint x="440" y="115"/>
                        </Array>
                    </mxGeometry>
                </mxCell>
                <mxCell id="lQSR2FXTDiS7bUAo7AVi-29" value="Table creation order:&lt;br style=&quot;font-size: 16px;&quot;&gt;&lt;font color=&quot;#00ff00&quot;&gt;First&lt;/font&gt;&lt;br style=&quot;font-size: 16px;&quot;&gt;&lt;font color=&quot;#ffff00&quot;&gt;Second&lt;/font&gt;&lt;br style=&quot;font-size: 16px;&quot;&gt;&lt;font color=&quot;#ff0000&quot;&gt;Third&lt;/font&gt;&lt;br style=&quot;font-size: 16px;&quot;&gt;&lt;font color=&quot;#0000ff&quot;&gt;Fourth&lt;/font&gt;&lt;br&gt;&lt;font color=&quot;#7f00ff&quot;&gt;Fifth&lt;/font&gt;" style="rounded=1;whiteSpace=wrap;html=1;fontSize=16;" vertex="1" parent="1">
                    <mxGeometry x="655" y="40" width="175" height="160" as="geometry"/>
                </mxCell>
            </root>
        </mxGraphModel>
    </diagram>
</mxfile>